<svg class="diagram-root" style="background: #f5f6f6" xmlns="http://www.w3.org/2000/svg" xmlns:xlink="http://www.w3.org/1999/xlink"><style>.diagram-root { font-family: "Helvetica Neue", sans-serif; font-size: 12px; } .t { overflow: visible; } .t-bg { y: 40; fill: #fff;   } .th { fill: #005aa0;   } .tht { fill: #fff; font-size: 14px;  } .tf { fill: #323c46; overflow: visible; } .tf.pk { fill: #005aa0; font-weight: bold; } .tf.fk { font-weight: bold; } .ty { fill: #adb1b5; font-weight: normal; text-anchor: end; } .r { fill: transparent; stroke: #c3c3c3; stroke-width: 1; } .l { stroke: 1; } .i { fill: #c2c7ce; stroke: #c2c7ce; } .i.ix { fill: #afb3b6; stroke: #000; } .fa { fill: transparent; overflow: visible; } .fa .bg.hover { fill: #f7f7f7; } .c { cy: 12; r: 4; stroke: #d2d2dc; fill: #d2d2dc; } .hr { fill: transparent; stroke: #323c46; stroke-opacity: 0.035; stroke-width: 13; } .dc { stroke: #fa5a3c; fill: #fa5a3c; } .x { stroke: white; stroke-width: 1; } .hl .th { fill: #1b9bff; } .hl .tht {  } .fhl .bg { fill: #e7f4ff; } .fhls .bg {  } .r.hl { stroke: #1b9bff; } .dim { opacity: 0.25; }</style><g class="drawing-wrapper" transform="translate(-9, 30.55000000000001) scale(1,1)"><g class="rs"><path d="M 511.54999999999995 56.44999999999999 m -1, 0 a 1,1 0 1,0 2,0 a 1,1 0 1,0 -2,0 M 511.54999999999995 56.44999999999999 m -0.5, 0 a 0.5,0.5 0 1,0 1,0 a 0.5,0.5 0 1,0 -1,0  M511.54999999999995 56.44999999999999 L511.54999999999995 56.44999999999999 499.54999999999995 56.44999999999999 M505.54999999999995 62.44999999999999 L505.54999999999995 62.44999999999999 505.54999999999995 50.44999999999999 M499.54999999999995 56.44999999999999 Q 482.11 56.44999999999999, 464.66 59.72 T 429.77 63 M 417.77 63 m -1, 0 a 1,1 0 1,0 2,0 a 1,1 0 1,0 -2,0 M 417.77 63 m -0.5, 0 a 0.5,0.5 0 1,0 1,0 a 0.5,0.5 0 1,0 -1,0  M417.77 63 L417.77 63 429.77 63 M423.77 69 L423.77 69 423.77 57" id="h4074644490" class="r"></path><path d="M 285 63 m -1, 0 a 1,1 0 1,0 2,0 a 1,1 0 1,0 -2,0 M 285 63 m -0.5, 0 a 0.5,0.5 0 1,0 1,0 a 0.5,0.5 0 1,0 -1,0  M285 63 L285 63 273 63 M279 69 L279 69 279 57 M273 63 Q 248.7 63, 224.39 61 T 175.77 59 M 163.77 59 m -1, 0 a 1,1 0 1,0 2,0 a 1,1 0 1,0 -2,0 M 163.77 59 m -0.5, 0 a 0.5,0.5 0 1,0 1,0 a 0.5,0.5 0 1,0 -1,0  M163.77 59 L163.77 59 175.77 59 M169.77 65 L169.77 65 169.77 53" id="h2852386606" class="r"></path></g><g class="hrs"></g><g class="ts"><svg width="132.77" height="100" x="511.54999999999995" y="-0.5500000000000114" id="h1060843308" class="t"><rect height="40" width="132.77" class="th"></rect><text x="13" y="25" class="tht">Course</text><rect height="60" width="132.77" class="t-bg"></rect><text x="13" y="61" class="tf pk">Name<tspan x="119.77000000000001" class="ty">string</tspan></text><path d="M7,14A2,2 0 0,1 5,12A2,2 0 0,1 7,10A2,2 0 0,1 9,12A2,2 0 0,1 7,14M12.65,10C11.83,7.67 9.61,6 7, 6A6, 6 0 0, 0 1, 12A6, 6 0 0, 0 7, 18C9.61, 18 11.83, 16.33 12.65, 14H17V18H21V14H23V10H12.65Z" class="i pk" transform="translate(66.84176208496095, 48) scale(0.65)"></path><text x="13" y="86" class="tf pk">CourseId<tspan x="119.77000000000001" class="ty">int</tspan></text><path d="M7,14A2,2 0 0,1 5,12A2,2 0 0,1 7,10A2,2 0 0,1 9,12A2,2 0 0,1 7,14M12.65,10C11.83,7.67 9.61,6 7, 6A6, 6 0 0, 0 1, 12A6, 6 0 0, 0 7, 18C9.61, 18 11.83, 16.33 12.65, 14H17V18H21V14H23V10H12.65Z" class="i pk" transform="translate(84.92589904785157, 73) scale(0.65)"></path></svg><svg width="132.77" height="75" x="31" y="2" id="h2876837712" class="t"><rect height="40" width="132.77" class="th"></rect><text x="13" y="25" class="tht">Department</text><rect height="35" width="132.77" class="t-bg"></rect><text x="13" y="61" class="tf pk">Name<tspan x="119.77000000000001" class="ty">string</tspan></text><path d="M7,14A2,2 0 0,1 5,12A2,2 0 0,1 7,10A2,2 0 0,1 9,12A2,2 0 0,1 7,14M12.65,10C11.83,7.67 9.61,6 7, 6A6, 6 0 0, 0 1, 12A6, 6 0 0, 0 7, 18C9.61, 18 11.83, 16.33 12.65, 14H17V18H21V14H23V10H12.65Z" class="i pk" transform="translate(66.84176208496095, 48) scale(0.65)"></path></svg><svg width="132.77" height="75" x="285" y="6" id="h1952894089" class="t"><rect height="40" width="132.77" class="th"></rect><text x="13" y="25" class="tht">Offer</text><rect height="35" width="132.77" class="t-bg"></rect><text x="13" y="61" class="tf pk">Name<tspan x="119.77000000000001" class="ty">string</tspan></text><path d="M7,14A2,2 0 0,1 5,12A2,2 0 0,1 7,10A2,2 0 0,1 9,12A2,2 0 0,1 7,14M12.65,10C11.83,7.67 9.61,6 7, 6A6, 6 0 0, 0 1, 12A6, 6 0 0, 0 7, 18C9.61, 18 11.83, 16.33 12.65, 14H17V18H21V14H23V10H12.65Z" class="i pk" transform="translate(66.84176208496095, 48) scale(0.65)"></path></svg></g></g><text class="qdbd-link" x="10" y="20">www.quickdatabasediagrams.com</text></svg>