<svg class="diagram-root" style="background: #f5f6f6" xmlns="http://www.w3.org/2000/svg" xmlns:xlink="http://www.w3.org/1999/xlink"><style>.diagram-root { font-family: "Helvetica Neue", sans-serif; font-size: 12px; } .t { overflow: visible; } .t-bg { y: 40; fill: #fff;   } .th { fill: #005aa0;   } .tht { fill: #fff; font-size: 14px;  } .tf { fill: #323c46; overflow: visible; } .tf.pk { fill: #005aa0; font-weight: bold; } .tf.fk { font-weight: bold; } .ty { fill: #adb1b5; font-weight: normal; text-anchor: end; } .r { fill: transparent; stroke: #c3c3c3; stroke-width: 1; } .l { stroke: 1; } .i { fill: #c2c7ce; stroke: #c2c7ce; } .i.ix { fill: #afb3b6; stroke: #000; } .fa { fill: transparent; overflow: visible; } .fa .bg.hover { fill: #f7f7f7; } .c { cy: 12; r: 4; stroke: #d2d2dc; fill: #d2d2dc; } .hr { fill: transparent; stroke: #323c46; stroke-opacity: 0.035; stroke-width: 13; } .dc { stroke: #fa5a3c; fill: #fa5a3c; } .x { stroke: white; stroke-width: 1; } .hl .th { fill: #1b9bff; } .hl .tht {  } .fhl .bg { fill: #e7f4ff; } .fhls .bg {  } .r.hl { stroke: #1b9bff; } .dim { opacity: 0.25; }</style><g class="drawing-wrapper" transform="translate(-7, 6) scale(1,1)"><g class="rs"><path d="M 251.81818181818184 82.45454545454545 m -1, 0 a 1,1 0 1,0 2,0 a 1,1 0 1,0 -2,0 M 251.81818181818184 82.45454545454545 m -0.5, 0 a 0.5,0.5 0 1,0 1,0 a 0.5,0.5 0 1,0 -1,0  M251.81818181818184 82.45454545454545 L251.81818181818184 82.45454545454545 239.81818181818184 82.45454545454545 M245.81818181818184 88.45454545454545 L245.81818181818184 88.45454545454545 245.81818181818184 76.45454545454545 M239.81818181818184 82.45454545454545 Q 224.24 82.45454545454545, 208.67 81.73 T 177.52 81 M 165.52 81 m -1, 0 a 1,1 0 1,0 2,0 a 1,1 0 1,0 -2,0 M 165.52 81 m -0.5, 0 a 0.5,0.5 0 1,0 1,0 a 0.5,0.5 0 1,0 -1,0  M165.52 81 L165.52 81 177.52 81 M171.52 87 L171.52 87 171.52 75" id="h2183774264" class="r"></path><path d="M 388.34 107.45454545454545 m -1, 0 a 1,1 0 1,0 2,0 a 1,1 0 1,0 -2,0 M 388.34 107.45454545454545 m -0.5, 0 a 0.5,0.5 0 1,0 1,0 a 0.5,0.5 0 1,0 -1,0  M388.34 107.45454545454545 L388.34 107.45454545454545 400.34 107.45454545454545 M394.34 113.45454545454545 L394.34 113.45454545454545 394.34 101.45454545454545 M400.34 107.45454545454545 Q 417.89 107.45454545454545, 435.44 94.45 T 470.5454545454545 81.45454545454544 M 482.5454545454545 81.45454545454544 m -1, 0 a 1,1 0 1,0 2,0 a 1,1 0 1,0 -2,0 M 482.5454545454545 81.45454545454544 m -0.5, 0 a 0.5,0.5 0 1,0 1,0 a 0.5,0.5 0 1,0 -1,0  M482.5454545454545 81.45454545454544 L482.5454545454545 81.45454545454544 470.5454545454545 81.45454545454544 M476.5454545454545 87.45454545454544 L476.5454545454545 87.45454545454544 476.5454545454545 75.45454545454544" id="h2195171075" class="r"></path></g><g class="hrs"></g><g class="ts"><svg width="136.52" height="125" x="251.81818181818184" y="25.45454545454545" id="h32897744" class="t"><rect height="40" width="136.52" class="th"></rect><text x="13" y="25" class="tht">Enrollment</text><rect height="85" width="136.52" class="t-bg"></rect><text x="13" y="61" class="tf pk">StudentId<tspan x="123.52000000000001" class="ty">int</tspan></text><path d="M7,14A2,2 0 0,1 5,12A2,2 0 0,1 7,10A2,2 0 0,1 9,12A2,2 0 0,1 7,14M12.65,10C11.83,7.67 9.61,6 7, 6A6, 6 0 0, 0 1, 12A6, 6 0 0, 0 7, 18C9.61, 18 11.83, 16.33 12.65, 14H17V18H21V14H23V10H12.65Z" class="i pk" transform="translate(88.67589904785157, 48) scale(0.65)"></path><text x="13" y="86" class="tf pk">CourseId<tspan x="123.52000000000001" class="ty">int</tspan></text><path d="M7,14A2,2 0 0,1 5,12A2,2 0 0,1 7,10A2,2 0 0,1 9,12A2,2 0 0,1 7,14M12.65,10C11.83,7.67 9.61,6 7, 6A6, 6 0 0, 0 1, 12A6, 6 0 0, 0 7, 18C9.61, 18 11.83, 16.33 12.65, 14H17V18H21V14H23V10H12.65Z" class="i pk" transform="translate(88.67589904785157, 73) scale(0.65)"></path><text x="13" y="111" class="tf">Grade<tspan x="123.52000000000001" class="ty">int</tspan></text></svg><svg width="132.02" height="100" x="482.5454545454545" y="24.454545454545446" id="h1060843308" class="t"><rect height="40" width="132.02" class="th"></rect><text x="13" y="25" class="tht">Course</text><rect height="60" width="132.02" class="t-bg"></rect><text x="13" y="61" class="tf pk">CourseId<tspan x="119.02000000000001" class="ty">int</tspan></text><path d="M7,14A2,2 0 0,1 5,12A2,2 0 0,1 7,10A2,2 0 0,1 9,12A2,2 0 0,1 7,14M12.65,10C11.83,7.67 9.61,6 7, 6A6, 6 0 0, 0 1, 12A6, 6 0 0, 0 7, 18C9.61, 18 11.83, 16.33 12.65, 14H17V18H21V14H23V10H12.65Z" class="i pk" transform="translate(84.17589904785157, 48) scale(0.65)"></path><text x="13" y="86" class="tf">Name<tspan x="119.02000000000001" class="ty">String</tspan></text></svg><svg width="136.52" height="100" x="29" y="24" id="h2268466501" class="t"><rect height="40" width="136.52" class="th"></rect><text x="13" y="25" class="tht">Student</text><rect height="60" width="136.52" class="t-bg"></rect><text x="13" y="61" class="tf pk">StudentId<tspan x="123.52000000000001" class="ty">int</tspan></text><path d="M7,14A2,2 0 0,1 5,12A2,2 0 0,1 7,10A2,2 0 0,1 9,12A2,2 0 0,1 7,14M12.65,10C11.83,7.67 9.61,6 7, 6A6, 6 0 0, 0 1, 12A6, 6 0 0, 0 7, 18C9.61, 18 11.83, 16.33 12.65, 14H17V18H21V14H23V10H12.65Z" class="i pk" transform="translate(88.67589904785157, 48) scale(0.65)"></path><text x="13" y="86" class="tf">Name<tspan x="123.52000000000001" class="ty">string</tspan></text></svg></g></g><text class="qdbd-link" x="10" y="20">www.quickdatabasediagrams.com</text></svg>